<svg width="20" height="20" fill="none" xmlns="http://www.w3.org/2000/svg"><path d="M10.007 5.192A4.8 4.8 0 005.2 10a4.8 4.8 0 004.807 4.807A4.8 4.8 0 0014.815 10a4.8 4.8 0 00-4.808-4.808zm0 7.932A3.13 3.13 0 016.883 10a3.13 3.13 0 013.124-3.125A3.13 3.13 0 0113.132 10a3.13 3.13 0 01-3.125 3.124zm5.004-9.249c-.62 0-1.122.502-1.122 1.123s.501 1.123 1.122 1.123a1.12 1.12 0 001.038-1.553 1.12 1.12 0 00-1.038-.693zM19.378 10c0-1.294.012-2.576-.061-3.868-.073-1.5-.415-2.83-1.512-3.928-1.1-1.099-2.428-1.439-3.928-1.512-1.294-.072-2.576-.06-3.867-.06-1.294 0-2.576-.012-3.867.06-1.5.073-2.832.415-3.929 1.512C1.115 3.304.775 4.632.703 6.132.63 7.426.642 8.708.642 10c0 1.29-.012 2.575.06 3.867.073 1.5.416 2.831 1.512 3.928 1.1 1.1 2.429 1.439 3.929 1.512 1.293.072 2.575.06 3.867.06 1.293 0 2.576.012 3.867-.06 1.5-.073 2.831-.415 3.928-1.512 1.1-1.1 1.44-2.428 1.512-3.928.075-1.292.06-2.574.06-3.867zm-2.063 5.526a2.976 2.976 0 01-.708 1.073c-.33.331-.646.537-1.073.708-1.233.49-4.16.38-5.527.38-1.366 0-4.296.11-5.528-.377a2.98 2.98 0 01-1.074-.708 2.999 2.999 0 01-.708-1.074C2.21 14.293 2.32 11.366 2.32 10c0-1.367-.11-4.297.377-5.53.171-.426.378-.745.708-1.073A3.03 3.03 0 014.48 2.69c1.232-.487 4.162-.377 5.528-.377 1.367 0 4.296-.11 5.53.377.426.171.745.378 1.073.708a3 3 0 01.708 1.074c.487 1.232.377 4.162.377 5.529 0 1.366.11 4.293-.38 5.526z" fill="#fff"/></svg>