<svg width="20" height="16" fill="none" xmlns="http://www.w3.org/2000/svg"><path d="M19.757 1.96a8.015 8.015 0 01-2.301.619A3.987 3.987 0 0019.214.376a7.89 7.89 0 01-2.537.965 3.986 3.986 0 00-2.92-1.263 3.996 3.996 0 00-3.996 3.999c0 .309.038.618.099.916A11.358 11.358 0 011.619.809a3.968 3.968 0 00-.544 2.018c0 1.388.706 2.611 1.781 3.33A4.031 4.031 0 011.05 5.65v.05a3.997 3.997 0 003.204 3.923c-.343.09-.697.135-1.052.136-.26 0-.506-.026-.755-.061a4.004 4.004 0 003.736 2.773 8.01 8.01 0 01-4.961 1.708 8.06 8.06 0 01-.966-.05 11.317 11.317 0 006.138 1.794c7.35 0 11.372-6.09 11.372-11.374 0-.174 0-.347-.012-.52a8.607 8.607 0 002.004-2.068z" fill="#fff"/></svg>